ffmpeg version 3.4.8-0ubuntu0.2 Copyright (c) 2000-2020 the FFmpeg developers
  built with gcc 7 (Ubuntu 7.5.0-3ubuntu1~18.04)
  configuration: --prefix=/usr --extra-version=0ubuntu0.2 --toolchain=hardened --libdir=/usr/lib/x86_64-linux-gnu --incdir=/usr/include/x86_64-linux-gnu --enable-gpl --disable-stripping --enable-avresample --enable-avisynth --enable-gnutls --enable-ladspa --enable-libass --enable-libbluray --enable-libbs2b --enable-libcaca --enable-libcdio --enable-libflite --enable-libfontconfig --enable-libfreetype --enable-libfribidi --enable-libgme --enable-libgsm --enable-libmp3lame --enable-libmysofa --enable-libopenjpeg --enable-libopenmpt --enable-libopus --enable-libpulse --enable-librubberband --enable-librsvg --enable-libshine --enable-libsnappy --enable-libsoxr --enable-libspeex --enable-libssh --enable-libtheora --enable-libtwolame --enable-libvorbis --enable-libvpx --enable-libwavpack --enable-libwebp --enable-libx265 --enable-libxml2 --enable-libxvid --enable-libzmq --enable-libzvbi --enable-omx --enable-openal --enable-opengl --enable-sdl2 --enable-libdc1394 --enable-libdrm --enable-libiec61883 --enable-chromaprint --enable-frei0r --enable-libopencv --enable-libx264 --enable-shared
  libavutil      55. 78.100 / 55. 78.100
  libavcodec     57.107.100 / 57.107.100
  libavformat    57. 83.100 / 57. 83.100
  libavdevice    57. 10.100 / 57. 10.100
  libavfilter     6.107.100 /  6.107.100
  libavresample   3.  7.  0 /  3.  7.  0
  libswscale      4.  8.100 /  4.  8.100
  libswresample   2.  9.100 /  2.  9.100
  libpostproc    54.  7.100 / 54.  7.100
[rawvideo @ 0x5629db945a20] Estimating duration from bitrate, this may be inaccurate
Input #0, rawvideo, from '../../SVC-Encoder-20220109T061506Z-001/SVC-Encoder/Dataset/RollerCoaster/ERP_8x8/tile_yuv/Tile_49_480x240.yuv':
  Duration: 00:00:10.00, start: 0.000000, bitrate: 41472 kb/s
    Stream #0:0: Video: rawvideo (I420 / 0x30323449), yuv420p, 480x240, 41472 kb/s, 30 tbr, 30 tbn, 30 tbc
Stream mapping:
  Stream #0:0 -> #0:0 (rawvideo (native) -> h264 (libx264))
Press [q] to stop, [?] for help
[libx264 @ 0x5629db952c60] using cpu capabilities: MMX2 SSE2Fast LZCNT SSSE3 SSE4.2 AVX
[libx264 @ 0x5629db952c60] profile High, level 2.1
Output #0, rawvideo, to 'RollerCoaster_Tile_49_480x240_x264_QP_32.h264':
  Metadata:
    encoder         : Lavf57.83.100
    Stream #0:0: Video: h264 (libx264), yuv420p, 480x240, q=-1--1, 30 fps, 30 tbn, 30 tbc
    Metadata:
      encoder         : Lavc57.107.100 libx264
    Side data:
      cpb: bitrate max/min/avg: 0/0/0 buffer size: 0 vbv_delay: -1
frame=  228 fps=0.0 q=38.0 PSNR=Y:nan U:nan V:nan *:nan size=      38kB time=00:00:06.16 bitrate=  50.6kbits/s speed=12.2x    frame=  300 fps=0.0 q=38.0 LPSNR=Y:inf U:inf V:inf *:inf size=      60kB time=00:00:09.93 bitrate=  49.4kbits/s speed=14.4x    
video:60kB audio:0kB subtitle:0kB other streams:0kB global headers:0kB muxing overhead: 0.000000%
[libx264 @ 0x5629db952c60] frame I:2     Avg QP:28.99  size:  7060  PSNR Mean Y:41.00 U:45.67 V:43.25 Avg:41.84 Global:41.77
[libx264 @ 0x5629db952c60] frame P:76    Avg QP:30.32  size:   348  PSNR Mean Y:40.03 U:45.41 V:43.46 Avg:41.05 Global:41.04
[libx264 @ 0x5629db952c60] frame B:222   Avg QP:37.46  size:    93  PSNR Mean Y:39.73 U:45.34 V:43.35 Avg:40.78 Global:40.77
[libx264 @ 0x5629db952c60] consecutive B-frames:  1.0%  0.7%  1.0% 97.3%
[libx264 @ 0x5629db952c60] mb I  I16..4: 19.0% 65.8% 15.2%
[libx264 @ 0x5629db952c60] mb P  I16..4:  0.4%  0.2%  0.0%  P16..4: 31.6%  2.7%  0.3%  0.0%  0.0%    skip:64.8%
[libx264 @ 0x5629db952c60] mb B  I16..4:  0.0%  0.0%  0.0%  B16..8: 19.5%  0.1%  0.0%  direct: 0.0%  skip:80.4%  L0:40.7% L1:59.3% BI: 0.0%
[libx264 @ 0x5629db952c60] 8x8 transform intra:60.4% inter:91.2%
[libx264 @ 0x5629db952c60] coded y,uvDC,uvAC intra: 51.0% 57.8% 31.0% inter: 1.0% 1.3% 0.0%
[libx264 @ 0x5629db952c60] i16 v,h,dc,p: 40% 30% 25%  5%
[libx264 @ 0x5629db952c60] i8 v,h,dc,ddl,ddr,vr,hd,vl,hu:  6% 22% 31%  5%  4%  3% 14%  5% 11%
[libx264 @ 0x5629db952c60] i4 v,h,dc,ddl,ddr,vr,hd,vl,hu:  5% 34% 16%  5%  6%  2% 17%  3% 11%
[libx264 @ 0x5629db952c60] i8c dc,h,v,p: 51% 31%  8% 10%
[libx264 @ 0x5629db952c60] Weighted P-Frames: Y:1.3% UV:0.0%
[libx264 @ 0x5629db952c60] ref P L0: 56.8% 21.0% 15.9%  6.3%  0.1%
[libx264 @ 0x5629db952c60] ref B L0: 68.3% 27.0%  4.7%
[libx264 @ 0x5629db952c60] ref B L1: 73.9% 26.1%
[libx264 @ 0x5629db952c60] PSNR Mean Y:39.812 U:45.364 V:43.376 Avg:40.853 Global:40.842 kb/s:49.03
